<svg viewBox="0 0 512 512" class="fl-svg" style="transform: scale(0.5);"><svg xmlns="http://www.w3.org/2000/svg" width="512" height="512" viewBox="0 0 512 512" data-svgdocument="" id="_bacyhNq694iMhDVH4dABY" class="fl-svgdocument" x="0" y="0" style="overflow: hidden;" xmlns:xlink="http://www.w3.org/1999/xlink"><defs id="_z14NEPbgpTp_iBRh6cu7_" transform="matrix(1.0644590854644775, 0, 0, 1.0644590854644775, -18.21924591064453, -18.173030853271484)"><linearGradient id="g__ehgfi9d1g_4616" x1="0%" y1="50%" x2="100%" y2="50%"><stop id="_ehgfmil3i_2" offset="0%" style="stop-color: rgb(233, 17, 17); stop-opacity: 1;"></stop><stop id="_ehgfmil3i_3" offset="22%" style="stop-color: rgb(240, 106, 9); stop-opacity: 1;"></stop><stop id="_ehgfmil3i_4" offset="43%" style="stop-color: rgb(210, 225, 38); stop-opacity: 1;"></stop><stop id="_ehgfmil3i_5" offset="63%" style="stop-color: rgb(22, 221, 114); stop-opacity: 1;"></stop><stop id="_ehgfmil3i_6" offset="82%" style="stop-color: rgb(28, 46, 204); stop-opacity: 1;"></stop><stop id="_ehgfmil3i_7" offset="98%" style="stop-color: rgb(117, 0, 250); stop-opacity: 1;"></stop></linearGradient><linearGradient id="g__ehgfi9d1g_6996" x1="0%" y1="50%" x2="100%" y2="50%"><stop id="_ehgfmil3i_8" offset="0%" style="stop-color: rgb(250, 0, 0); stop-opacity: 1;"></stop><stop id="_ehgfmil3i_9" offset="18%" style="stop-color: rgb(238, 107, 0); stop-opacity: 1;"></stop><stop id="_ehgfmil3i_10" offset="37%" style="stop-color: rgb(245, 250, 2); stop-opacity: 1;"></stop><stop id="_ehgfmil3i_11" offset="58%" style="stop-color: rgb(26, 243, 7); stop-opacity: 1;"></stop><stop id="_ehgfmil3i_12" offset="81%" style="stop-color: rgb(28, 4, 238); stop-opacity: 1;"></stop><stop id="_ehgfmil3i_13" offset="100%" style="stop-color: rgb(158, 0, 255); stop-opacity: 1;"></stop></linearGradient></defs><g id="_ehgfmil3i_14" transform="matrix(0.812504768371582, 0, 0, 0.812504768371582, 47.99919509887695, 30.682720184326172)" fill="url(#g__ehgfi9d1g_4616)"><svg id="_ehgfmil3i_15" xmlns="http://www.w3.org/2000/svg" xmlns:xlink="http://www.w3.org/1999/xlink" version="1.1" x="0px" y="0px" viewBox="0 0 512 512" enable-background="new 0 0 512 512" width="512" height="512"><path id="_ehgfmil3i_16" d="M469.109,305.035c-2.359-53.367-24.25-103.202-62.266-141.21c-40.281-40.297-93.859-62.484-150.843-62.484  s-110.562,22.188-150.843,62.484c-38.016,38.008-59.906,87.843-62.266,141.21c-24.421,4.875-42.89,26.469-42.89,52.312  c0,29.405,23.922,53.312,53.328,53.312h96c23.531,0,42.672-19.125,42.672-42.655c0-23.344-18.859-42.375-42.125-42.656  c-0.359-3.5-0.547-7.062-0.547-10.688c0-58.805,47.859-106.655,106.671-106.655s106.671,47.851,106.671,106.655  c0,3.625-0.188,7.188-0.547,10.688C338.844,325.629,320,344.66,320,368.004c0,23.53,19.141,42.655,42.672,42.655h96  c29.404,0,53.326-23.906,53.326-53.312C511.998,331.504,493.529,309.91,469.109,305.035z M120.236,178.903  c36.265-36.258,84.484-56.234,135.765-56.234s99.5,19.977,135.765,56.234c34,34.008,53.688,78.516,56,126.21  c-4.719,0.984-9.266,2.578-13.562,4.812c-2.391-1.672-5-2.984-7.75-3.922c-2.109-42.335-19.594-81.828-49.781-112.015  c-32.234-32.234-75.094-49.984-120.671-49.984c-45.593,0-88.453,17.75-120.671,49.984c-30.187,30.187-47.671,69.68-49.781,112.015  c-2.75,0.938-5.359,2.25-7.75,3.922c-4.297-2.234-8.844-3.828-13.562-4.812C66.548,257.419,86.236,212.911,120.236,178.903z   M170.673,368.004c0,11.766-9.578,21.343-21.344,21.343h-96c-17.64,0-32-14.374-32-31.999c0-17.656,14.359-32,32-32  c7.031,0,13.703,2.219,19.297,6.469c4.672,3.531,11.328,2.625,14.906-2.031c2.031-2.656,5.125-4.188,8.469-4.188  c5.812,0,10.594,4.719,10.656,10.531c0.078,5.844,4.828,10.531,10.672,10.531h32C161.095,346.66,170.673,356.238,170.673,368.004z   M256,186.669c-70.578,0-128,57.421-128,127.991c0,3.594,0.156,7.156,0.438,10.688h-2.375c-3.25-8.859-10.312-15.906-19.156-19.156  c2.047-36.694,17.297-70.914,43.5-97.116C178.61,180.872,216.11,165.341,256,165.341c39.89,0,77.39,15.531,105.593,43.734  c26.203,26.202,41.453,60.422,43.5,97.116c-8.844,3.25-15.906,10.297-19.156,19.156h-2.375c0.281-3.531,0.438-7.094,0.438-10.688  C384,244.09,326.578,186.669,256,186.669z M458.672,389.347h-96c-11.766,0-21.344-9.577-21.344-21.343s9.578-21.344,21.344-21.344  h32c5.844,0,10.594-4.688,10.672-10.531c0.062-5.812,4.844-10.531,10.656-10.531c3.344,0,6.438,1.531,8.469,4.188  c3.578,4.656,10.234,5.562,14.906,2.031c5.594-4.25,12.266-6.469,19.297-6.469c17.639,0,31.998,14.344,31.998,32  C490.67,374.973,476.311,389.347,458.672,389.347z" fill="url(#g__ehgfi9d1g_4616)"></path></svg></g><path id="_ehgfi9d1g_2485" fill="url(#g__ehgfi9d1g_6996)" transform="matrix(0.5644592046737671, 0, 0, 0.5644592046737671, 255.5484161376953, 420.86956787109375)" text="Dieren Opvang" text-anchor="middle" font-size="100" letter-spacing="0" side="left" offset="0.5" dx="0" dy="0" space="preserve" href="" font-family="Bungee" font-scale="contain" x="0" y="0" data-fl-textpath="" d="M-391.3 0L-391.3 0L-425 0Q-426.9 0 -427.75-0.85Q-428.6-1.7 -428.6-3.6L-428.6-3.6L-428.6-68.4Q-428.6-70.3 -427.75-71.15Q-426.9-72 -425-72L-425-72L-391.3-72Q-378.8-72 -372.75-67Q-366.7-62 -366.7-51.6L-366.7-51.6L-366.7-20.4Q-366.7-10 -372.75-5Q-378.8 0 -391.3 0ZM-394-52.9L-405.9-52.9L-405.9-18.9L-394-18.9Q-391.6-18.9 -390.45-20.1Q-389.3-21.3 -389.3-23.8L-389.3-23.8L-389.3-48.1Q-389.3-50.6 -390.45-51.75Q-391.6-52.9 -394-52.9L-394-52.9ZM-309.4 0L-352 0Q-353.9 0 -354.75-0.85Q-355.59999999999997-1.7 -355.59999999999997-3.6L-355.59999999999997-3.6L-355.59999999999997-15.5Q-355.59999999999997-17.4 -354.75-18.25Q-353.9-19.1 -352-19.1L-352-19.1L-342.09999999999997-19.1L-342.09999999999997-52.7L-352-52.7Q-353.9-52.7 -354.75-53.55Q-355.59999999999997-54.4 -355.59999999999997-56.3L-355.59999999999997-56.3L-355.59999999999997-68.4Q-355.59999999999997-70.3 -354.75-71.15Q-353.9-72 -352-72L-352-72L-309.4-72Q-307.5-72 -306.65-71.15Q-305.79999999999995-70.3 -305.79999999999995-68.4L-305.79999999999995-68.4L-305.79999999999995-56.3Q-305.79999999999995-54.4 -306.65-53.55Q-307.5-52.7 -309.4-52.7L-309.4-52.7L-319.09999999999997-52.7L-319.09999999999997-19.1L-309.4-19.1Q-307.5-19.1 -306.65-18.25Q-305.79999999999995-17.4 -305.79999999999995-15.5L-305.79999999999995-15.5L-305.79999999999995-3.6Q-305.79999999999995-1.7 -306.65-0.85Q-307.5 0 -309.4 0L-309.4 0ZM-243.49999999999997 0L-243.49999999999997 0L-289.9 0Q-291.79999999999995 0 -292.65-0.85Q-293.5-1.7 -293.5-3.6L-293.5-3.6L-293.5-68.4Q-293.5-70.3 -292.65-71.15Q-291.79999999999995-72 -289.9-72L-289.9-72L-243.49999999999997-72Q-241.59999999999997-72 -240.74999999999997-71.15Q-239.89999999999998-70.3 -239.89999999999998-68.4L-239.89999999999998-68.4L-239.89999999999998-56.7Q-239.89999999999998-54.8 -240.74999999999997-53.95Q-241.59999999999997-53.1 -243.49999999999997-53.1L-243.49999999999997-53.1L-271.09999999999997-53.1L-271.09999999999997-45.4L-251.59999999999997-45.4Q-249.7-45.4 -248.84999999999997-44.55Q-247.99999999999997-43.7 -247.99999999999997-41.8L-247.99999999999997-41.8L-247.99999999999997-31.1Q-247.99999999999997-29.2 -248.84999999999997-28.35Q-249.7-27.5 -251.59999999999997-27.5L-251.59999999999997-27.5L-271.09999999999997-27.5L-271.09999999999997-18.9L-243.49999999999997-18.9Q-241.59999999999997-18.9 -240.74999999999997-18.05Q-239.89999999999998-17.2 -239.89999999999998-15.3L-239.89999999999998-15.3L-239.89999999999998-3.6Q-239.89999999999998-1.7 -240.74999999999997-0.85Q-241.59999999999997 0 -243.49999999999997 0ZM-197.99999999999997-54L-205.49999999999997-54L-205.49999999999997-41.2L-197.99999999999997-41.2Q-195.39999999999998-41.2 -194.49999999999997-42.55Q-193.59999999999997-43.9 -193.59999999999997-45.9L-193.59999999999997-45.9L-193.59999999999997-49.3Q-193.59999999999997-51.3 -194.49999999999997-52.65Q-195.39999999999998-54 -197.99999999999997-54L-197.99999999999997-54ZM-209.09999999999997 0L-209.09999999999997 0L-224.49999999999997 0Q-226.39999999999998 0 -227.24999999999997-0.85Q-228.09999999999997-1.7 -228.09999999999997-3.6L-228.09999999999997-3.6L-228.09999999999997-68.4Q-228.09999999999997-70.3 -227.24999999999997-71.15Q-226.39999999999998-72 -224.49999999999997-72L-224.49999999999997-72L-191.2-72Q-179.99999999999997-72 -175.74999999999997-67.35Q-171.49999999999997-62.7 -171.49999999999997-55.3L-171.49999999999997-55.3L-171.49999999999997-50.7Q-171.49999999999997-46.5 -172.74999999999997-43.55Q-173.99999999999997-40.6 -177.09999999999997-39.3L-177.09999999999997-39.3Q-171.7-38.7 -168.34999999999997-34.9Q-164.99999999999997-31.1 -164.99999999999997-24.8L-164.99999999999997-24.8L-164.99999999999997-3.6Q-164.99999999999997-1.7 -165.84999999999997-0.85Q-166.7 0 -168.59999999999997 0L-168.59999999999997 0L-184.09999999999997 0Q-185.99999999999997 0 -186.84999999999997-0.85Q-187.7-1.7 -187.7-3.6L-187.7-3.6L-187.7-18.9Q-187.7-21.1 -188.54999999999995-22.15Q-189.39999999999998-23.2 -191.49999999999997-23.2L-191.49999999999997-23.2L-205.49999999999997-23.2L-205.49999999999997-3.6Q-205.49999999999997-1.7 -206.34999999999997-0.85Q-207.19999999999996 0 -209.09999999999997 0ZM-103.79999999999998 0L-103.79999999999998 0L-150.2 0Q-152.1 0 -152.95-0.85Q-153.79999999999998-1.7 -153.79999999999998-3.6L-153.79999999999998-3.6L-153.79999999999998-68.4Q-153.79999999999998-70.3 -152.95-71.15Q-152.1-72 -150.2-72L-150.2-72L-103.79999999999998-72Q-101.89999999999999-72 -101.04999999999998-71.15Q-100.19999999999999-70.3 -100.19999999999999-68.4L-100.19999999999999-68.4L-100.19999999999999-56.7Q-100.19999999999999-54.8 -101.04999999999998-53.95Q-101.89999999999999-53.1 -103.79999999999998-53.1L-103.79999999999998-53.1L-131.39999999999998-53.1L-131.39999999999998-45.4L-111.89999999999999-45.4Q-109.99999999999999-45.4 -109.14999999999999-44.55Q-108.29999999999998-43.7 -108.29999999999998-41.8L-108.29999999999998-41.8L-108.29999999999998-31.1Q-108.29999999999998-29.2 -109.14999999999999-28.35Q-109.99999999999999-27.5 -111.89999999999999-27.5L-111.89999999999999-27.5L-131.39999999999998-27.5L-131.39999999999998-18.9L-103.79999999999998-18.9Q-101.89999999999999-18.9 -101.04999999999998-18.05Q-100.19999999999999-17.2 -100.19999999999999-15.3L-100.19999999999999-15.3L-100.19999999999999-3.6Q-100.19999999999999-1.7 -101.04999999999998-0.85Q-101.89999999999999 0 -103.79999999999998 0ZM-69.79999999999998 0L-69.79999999999998 0L-84.79999999999998 0Q-86.69999999999999 0 -87.54999999999998-0.85Q-88.39999999999998-1.7 -88.39999999999998-3.6L-88.39999999999998-3.6L-88.39999999999998-68.4Q-88.39999999999998-70.3 -87.54999999999998-71.15Q-86.69999999999999-72 -84.79999999999998-72L-84.79999999999998-72L-74.39999999999998-72Q-72.49999999999999-72 -71.14999999999998-71.4Q-69.79999999999998-70.8 -68.49999999999999-69.3L-68.49999999999999-69.3L-49.09999999999998-47.1L-49.09999999999998-68.4Q-49.09999999999998-70.3 -48.249999999999986-71.15Q-47.399999999999984-72 -45.499999999999986-72L-45.499999999999986-72L-30.499999999999986-72Q-28.59999999999998-72 -27.749999999999986-71.15Q-26.899999999999977-70.3 -26.899999999999977-68.4L-26.899999999999977-68.4L-26.899999999999977-3.6Q-26.899999999999977-1.7 -27.749999999999986-0.85Q-28.59999999999998 0 -30.499999999999986 0L-30.499999999999986 0L-45.499999999999986 0Q-47.399999999999984 0 -48.249999999999986-0.85Q-49.09999999999998-1.7 -49.09999999999998-3.6L-49.09999999999998-3.6L-49.09999999999998-15.9L-66.19999999999999-36.6L-66.19999999999999-3.6Q-66.19999999999999-1.7 -67.04999999999998-0.85Q-67.89999999999998 0 -69.79999999999998 0ZM 70.40000000000002-53L 70.40000000000002-18.9Q 70.40000000000002-14.3  69.05000000000001-10.55Q 67.70000000000002-6.8  64.25000000000001-4.15Q 60.80000000000001-1.5  54.750000000000014 0Q 48.70000000000002 1.5  39.40000000000001 1.5L 39.40000000000001 1.5Q 30.100000000000016 1.5  24.000000000000014 0Q 17.900000000000013-1.5  14.450000000000014-4.15Q 11.000000000000014-6.8  9.650000000000015-10.55Q 8.300000000000015-14.3  8.300000000000015-18.9L 8.300000000000015-18.9L 8.300000000000015-53Q 8.300000000000015-57.6  9.650000000000015-61.35Q 11.000000000000014-65.1  14.450000000000014-67.8Q 17.900000000000013-70.5  24.000000000000014-72Q 30.100000000000016-73.5  39.40000000000001-73.5L 39.40000000000001-73.5Q 48.70000000000002-73.5  54.750000000000014-72Q 60.80000000000001-70.5  64.25000000000001-67.8Q 67.70000000000002-65.1  69.05000000000001-61.35Q 70.40000000000002-57.6  70.40000000000002-53L 70.40000000000002-53ZM 31.000000000000014-49.4L 31.000000000000014-22.5Q 31.000000000000014-20.5  32.500000000000014-19.15Q 34.000000000000014-17.8  39.40000000000001-17.8L 39.40000000000001-17.8Q 44.80000000000001-17.8  46.30000000000001-19.15Q 47.80000000000001-20.5  47.80000000000001-22.5L 47.80000000000001-22.5L 47.80000000000001-49.4Q 47.80000000000001-51.3  46.30000000000001-52.65Q 44.80000000000001-54  39.40000000000001-54L 39.40000000000001-54Q 34.000000000000014-54  32.500000000000014-52.65Q 31.000000000000014-51.3  31.000000000000014-49.4L 31.000000000000014-49.4ZM 102.20000000000002 0L 102.20000000000002 0L 86.70000000000002 0Q 84.80000000000001 0  83.95000000000002-0.85Q 83.10000000000002-1.7  83.10000000000002-3.6L 83.10000000000002-3.6L 83.10000000000002-68.4Q 83.10000000000002-70.3  83.95000000000002-71.15Q 84.80000000000001-72  86.70000000000002-72L 86.70000000000002-72L 117.30000000000001-72Q 130.90000000000003-72  135.90000000000003-66.6Q 140.90000000000003-61.2  140.90000000000003-52.5L 140.90000000000003-52.5L 140.90000000000003-39.7Q 140.90000000000003-31  135.90000000000003-25.6Q 130.90000000000003-20.2  117.30000000000001-20.2L 117.30000000000001-20.2L 105.80000000000001-20.2L 105.80000000000001-3.6Q 105.80000000000001-1.7  104.95000000000002-0.85Q 104.10000000000002 0  102.20000000000002 0ZM 114.60000000000002-53.3L 105.60000000000002-53.3L 105.60000000000002-38.2L 114.60000000000002-38.2Q 117.50000000000001-38.2  118.40000000000002-39.7Q 119.30000000000001-41.2  119.30000000000001-43.1L 119.30000000000001-43.1L 119.30000000000001-48.4Q 119.30000000000001-50.3  118.40000000000002-51.8Q 117.50000000000001-53.3  114.60000000000002-53.3L 114.60000000000002-53.3ZM 193.90000000000003 0L 193.90000000000003 0L 167.90000000000003 0Q 166.00000000000003 0  164.75000000000003-0.7Q 163.50000000000003-1.4  162.80000000000004-3.3L 162.80000000000004-3.3L 153.00000000000003-27.8Q 152.10000000000002-30  151.50000000000003-31.65Q 150.90000000000003-33.3  150.50000000000003-34.8Q 150.10000000000002-36.3  149.95000000000005-37.95Q 149.80000000000004-39.6  149.80000000000004-42L 149.80000000000004-42L 149.80000000000004-68.4Q 149.80000000000004-70.3  150.65000000000003-71.15Q 151.50000000000003-72  153.40000000000003-72L 153.40000000000003-72L 169.30000000000004-72Q 171.20000000000005-72  172.20000000000005-71.15Q 173.20000000000005-70.3  173.20000000000005-68.4L 173.20000000000005-68.4L 173.20000000000005-40.8Q 173.20000000000005-39.8  173.40000000000003-38.8Q 173.60000000000002-37.8  174.00000000000003-36.7L 174.00000000000003-36.7L 178.70000000000005-22.7Q 179.00000000000003-21.7  179.40000000000003-21.35Q 179.80000000000004-21  180.60000000000002-21L 180.60000000000002-21L 181.70000000000005-21Q 182.50000000000003-21  182.90000000000003-21.35Q 183.30000000000004-21.7  183.60000000000002-22.7L 183.60000000000002-22.7L 188.30000000000004-36.8Q 188.70000000000005-37.9  188.90000000000003-38.9Q 189.10000000000002-39.9  189.10000000000002-40.9L 189.10000000000002-40.9L 189.10000000000002-68.4Q 189.10000000000002-70.3  189.95000000000005-71.15Q 190.80000000000004-72  192.70000000000005-72L 192.70000000000005-72L 208.40000000000003-72Q 210.30000000000004-72  211.15000000000003-71.15Q 212.00000000000003-70.3  212.00000000000003-68.4L 212.00000000000003-68.4L 212.00000000000003-42Q 212.00000000000003-39.6  211.85000000000002-37.95Q 211.70000000000005-36.3  211.30000000000004-34.8Q 210.90000000000003-33.3  210.30000000000004-31.65Q 209.70000000000005-30  208.80000000000004-27.8L 208.80000000000004-27.8L 199.00000000000003-3.3Q 198.30000000000004-1.4  197.05000000000004-0.7Q 195.80000000000004 0  193.90000000000003 0ZM 249.40000000000003-51L 249.40000000000003-51L 244.70000000000005-35.8L 260.40000000000003-35.8L 255.70000000000005-51Q 255.30000000000004-51.9  254.85000000000002-52.3Q 254.40000000000003-52.7  253.80000000000004-52.7L 253.80000000000004-52.7L 251.30000000000004-52.7Q 250.70000000000005-52.7  250.25000000000003-52.3Q 249.80000000000004-51.9  249.40000000000003-51ZM 243.70000000000005-17.6L 243.70000000000005-3.6Q 243.70000000000005-1.7  242.85000000000002-0.85Q 242.00000000000003 0  240.10000000000002 0L 240.10000000000002 0L 225.40000000000003 0Q 223.50000000000003 0  222.65000000000003-0.85Q 221.80000000000004-1.7  221.80000000000004-3.6L 221.80000000000004-3.6L 221.80000000000004-30Q 221.80000000000004-33  222.75000000000003-36.9Q 223.70000000000005-40.8  225.70000000000005-46L 225.70000000000005-46L 234.40000000000003-68.7Q 235.00000000000003-70.4  236.25000000000003-71.2Q 237.50000000000003-72  239.50000000000003-72L 239.50000000000003-72L 266.40000000000003-72Q 268.3-72  269.55-71.2Q 270.8-70.4  271.40000000000003-68.7L 271.40000000000003-68.7L 280.1-46Q 282.1-40.8  283.05000000000007-36.9Q 284-33  284-30L 284-30L 284-3.6Q 284-1.7  283.15000000000003-0.85Q 282.30000000000007 0  280.40000000000003 0L 280.40000000000003 0L 265.3 0Q 263.3 0  262.35-0.85Q 261.40000000000003-1.7  261.40000000000003-3.6L 261.40000000000003-3.6L 261.40000000000003-17.6L 243.70000000000005-17.6ZM 314.90000000000003 0L 314.90000000000003 0L 299.90000000000003 0Q 298.00000000000006 0  297.15000000000003-0.85Q 296.3-1.7  296.3-3.6L 296.3-3.6L 296.3-68.4Q 296.3-70.3  297.15000000000003-71.15Q 298.00000000000006-72  299.90000000000003-72L 299.90000000000003-72L 310.3-72Q 312.20000000000005-72  313.55-71.4Q 314.90000000000003-70.8  316.20000000000005-69.3L 316.20000000000005-69.3L 335.6-47.1L 335.6-68.4Q 335.6-70.3  336.45000000000005-71.15Q 337.3-72  339.20000000000005-72L 339.20000000000005-72L 354.20000000000005-72Q 356.1-72  356.95000000000005-71.15Q 357.80000000000007-70.3  357.80000000000007-68.4L 357.80000000000007-68.4L 357.80000000000007-3.6Q 357.80000000000007-1.7  356.95000000000005-0.85Q 356.1 0  354.20000000000005 0L 354.20000000000005 0L 339.20000000000005 0Q 337.3 0  336.45000000000005-0.85Q 335.6-1.7  335.6-3.6L 335.6-3.6L 335.6-15.9L 318.50000000000006-36.6L 318.50000000000006-3.6Q 318.50000000000006-1.7  317.65000000000003-0.85Q 316.8 0  314.90000000000003 0ZM 426.6 0L 426.6 0L 395.1 0Q 382.6 0  376.55000000000007-5Q 370.50000000000006-10  370.50000000000006-20.4L 370.50000000000006-20.4L 370.50000000000006-51.6Q 370.50000000000006-62  376.55000000000007-67Q 382.6-72  395.1-72L 395.1-72L 420.1-72Q 422.00000000000006-72  422.85-71.15Q 423.70000000000005-70.3  423.70000000000005-68.4L 423.70000000000005-68.4L 423.70000000000005-56.3Q 423.70000000000005-54.4  422.85-53.55Q 422.00000000000006-52.7  420.1-52.7L 420.1-52.7L 399.30000000000007-52.7Q 396.20000000000005-52.7  394.70000000000005-51.45Q 393.20000000000005-50.2  393.20000000000005-47.7L 393.20000000000005-47.7L 393.20000000000005-23.8Q 393.20000000000005-21.3  394.35-20.1Q 395.50000000000006-18.9  397.80000000000007-18.9L 397.80000000000007-18.9L 407.50000000000006-18.9L 407.50000000000006-34.5Q 407.50000000000006-36.4  408.35-37.25Q 409.20000000000005-38.1  411.1-38.1L 411.1-38.1L 426.6-38.1Q 428.50000000000006-38.1  429.35-37.25Q 430.20000000000005-36.4  430.20000000000005-34.5L 430.20000000000005-34.5L 430.20000000000005-3.6Q 430.20000000000005-1.7  429.35-0.85Q 428.50000000000006 0  426.6 0Z"></path></svg></svg>